<?xml version="1.0" encoding="UTF-8"?>
<svg version="1.1" xmlns="http://www.w3.org/2000/svg" width="224" height="224">
<path d="M0 0 C2.22359438 1.68525048 4.35668335 3.43628256 6.4765625 5.25 C7.27449219 5.91515625 8.07242188 6.5803125 8.89453125 7.265625 C29.22047632 24.78690478 43.74764548 50.33723214 46.4765625 77.25 C47.51855152 93.49773257 47.54170236 109.66024226 42.4765625 125.25 C42.25693848 125.94222656 42.03731445 126.63445312 41.81103516 127.34765625 C33.75910697 152.10177942 17.39350134 173.31825555 -4.5234375 187.25 C-5.08788574 187.61464355 -5.65233398 187.97928711 -6.23388672 188.35498047 C-15.4995068 194.2619804 -25.03810669 198.12719495 -35.5234375 201.25 C-36.63203125 201.59160156 -37.740625 201.93320313 -38.8828125 202.28515625 C-66.67459419 209.2983406 -97.80543754 204.31944339 -122.44140625 190.046875 C-148.34578033 174.27146452 -167.6464992 150.14254119 -174.9609375 120.5 C-181.7555551 90.88399862 -178.06191255 59.76390571 -162.30981445 33.60766602 C-145.52880169 7.14802425 -120.69519686 -10.91648134 -90.1171875 -17.98828125 C-58.66468274 -24.65484476 -26.33973123 -18.26656283 0 0 Z " fill="#0B0A0B" transform="translate(177.5234375,19.75)"/>
<path d="M0 0 C2.90290205 0.66206538 5.0380053 1.29780318 7.5625 2.8125 C8.5525 2.1525 9.5425 1.4925 10.5625 0.8125 C13.72102271 0.34648845 15.55158845 0.09726431 18.5625 0.8125 C21.10794274 3.14130931 22.6466941 5.00688852 24.5625 7.8125 C25.3399812 8.90968038 26.11872358 10.00596768 26.8984375 11.1015625 C35.26026062 22.95118726 35.26026062 22.95118726 34.5625 29.8125 C31.1675523 33.79842008 27.40175279 36.2118423 22.9375 38.875 C18.1320586 41.93905047 15.70673526 44.48283934 14.4375 50.1875 C14.24800781 51.68410156 14.24800781 51.68410156 14.0546875 53.2109375 C13.48532433 56.22042855 13.05074384 57.07179722 10.5625 58.8125 C7.375 60 7.375 60 4.5625 60.8125 C4.74425781 61.46734375 4.92601562 62.1221875 5.11328125 62.796875 C5.94021909 65.79929545 6.75144523 68.8057519 7.5625 71.8125 C7.84867187 72.84246094 8.13484375 73.87242188 8.4296875 74.93359375 C10.2792128 81.84729546 11.66133018 87.88810651 9.6875 94.9375 C7.08334097 98.46077398 4.4026573 99.92308212 0.609375 102.02734375 C-3.08548207 104.19215103 -6.52932395 106.62138677 -10 109.125 C-10.61979736 109.57004883 -11.23959473 110.01509766 -11.87817383 110.47363281 C-14.77782979 112.49748758 -14.77782979 112.49748758 -17.4375 114.8125 C-17.02263947 120.62809036 -15.14160136 125.30243361 -12.875 130.625 C-7.99322075 142.95686407 -7.99322075 142.95686407 -8.375 147.5859375 C-10.79060164 152.64804388 -16.05446548 155.63282023 -20.62402344 158.61328125 C-22.36708997 159.76593914 -24.04762655 160.97509374 -25.7265625 162.21875 C-34.88495349 168.80351719 -34.88495349 168.80351719 -41.4375 167.8125 C-46.37215793 164.25446338 -47.9008694 159.85874896 -49.75 154.3125 C-50.34377189 152.62194565 -50.93887664 150.93185898 -51.53515625 149.2421875 C-51.99559326 147.91912598 -51.99559326 147.91912598 -52.46533203 146.56933594 C-54.13581908 141.83223403 -55.90871305 137.13478313 -57.6875 132.4375 C-58.18117065 131.11008789 -58.18117065 131.11008789 -58.68481445 129.75585938 C-61.11492066 122.15317426 -61.11492066 122.15317426 -66.4375 116.8125 C-68.54604036 116.5772268 -68.54604036 116.5772268 -70.875 116.5625 C-71.65746094 116.53671875 -72.43992188 116.5109375 -73.24609375 116.484375 C-75.95343238 116.88975191 -76.60900906 117.86210967 -78.4375 119.8125 C-81.53251208 120.06515405 -83.63879973 120.21185013 -86.4375 118.8125 C-86.4375 118.1525 -86.4375 117.4925 -86.4375 116.8125 C-87.0975 116.8125 -87.7575 116.8125 -88.4375 116.8125 C-89.9453125 115.1328125 -89.9453125 115.1328125 -91.5625 112.9375 C-92.10132813 112.21820313 -92.64015625 111.49890625 -93.1953125 110.7578125 C-94.4375 108.8125 -94.4375 108.8125 -94.4375 106.8125 C-95.0975 106.8125 -95.7575 106.8125 -96.4375 106.8125 C-98.40735945 104.50411033 -99.94148804 101.87342646 -101.5625 99.3125 C-102.26439453 98.26835937 -102.26439453 98.26835937 -102.98046875 97.203125 C-106.18645419 92.15580099 -107.17845532 88.7912429 -106.4375 82.8125 C-104.0625 79.8125 -104.0625 79.8125 -101.4375 77.8125 C-100.7775 77.8125 -100.1175 77.8125 -99.4375 77.8125 C-99.4375 77.1525 -99.4375 76.4925 -99.4375 75.8125 C-97.27734375 74.26171875 -97.27734375 74.26171875 -94.375 72.5 C-90.97840092 70.40608628 -87.64885056 68.30630267 -84.4375 65.9375 C-81.4375 63.8125 -81.4375 63.8125 -78.4375 62.8125 C-77.4229463 61.82726866 -76.42572265 60.82414025 -75.4375 59.8125 C-73.66607155 58.45239395 -71.87211396 57.12137147 -70.0625 55.8125 C-68.65871094 54.7915625 -68.65871094 54.7915625 -67.2265625 53.75 C-64.68386834 51.98364663 -62.09722165 50.39372386 -59.4375 48.8125 C-57.98960536 47.82761048 -56.55250673 46.82671437 -55.125 45.8125 C-50.58631502 42.61031867 -46.01817746 39.45410088 -41.4375 36.3125 C-37.06685901 33.31437769 -32.7045096 30.30739994 -28.375 27.25 C-21.81806069 22.64000172 -15.11732914 18.24142914 -8.4375 13.8125 C-7.4475 13.1525 -6.4575 12.4925 -5.4375 11.8125 C-5.59798828 10.89017578 -5.59798828 10.89017578 -5.76171875 9.94921875 C-5.88160156 9.14097656 -6.00148438 8.33273438 -6.125 7.5 C-6.25261719 6.69949219 -6.38023437 5.89898437 -6.51171875 5.07421875 C-6.4375 2.8125 -6.4375 2.8125 -5.171875 1.0078125 C-3.4375 -0.1875 -3.4375 -0.1875 0 0 Z " fill="#734482" transform="translate(145.4375,28.1875)"/>
<path d="M0 0 C2.3046875 0.78125 2.3046875 0.78125 4.3046875 1.78125 C4.03618345 5.30163648 3.86588728 7.21783204 1.328125 9.765625 C0.45414062 10.34828125 -0.41984375 10.9309375 -1.3203125 11.53125 C-2.30515625 12.2015625 -3.29 12.871875 -4.3046875 13.5625 C-5.43429279 14.30300406 -6.56454021 15.0425292 -7.6953125 15.78125 C-8.9930043 16.64460688 -10.28984884 17.50923831 -11.5859375 18.375 C-13.54570029 19.68405844 -15.50695354 20.9897887 -17.47900391 22.28027344 C-21.04223444 24.62033376 -24.36744107 27.11127737 -27.6953125 29.78125 C-29.36782285 30.86719274 -31.05606556 31.92922133 -32.7578125 32.96875 C-38.05734555 36.28902578 -43.0178324 39.94901467 -47.96875 43.765625 C-50.47761792 45.62031819 -53.00702994 47.20406875 -55.6953125 48.78125 C-57.70323683 50.08159462 -59.70292293 51.39472581 -61.6953125 52.71875 C-62.7059375 53.38777344 -63.7165625 54.05679688 -64.7578125 54.74609375 C-67.50867998 56.65194742 -70.09710265 58.67459337 -72.6953125 60.78125 C-74.67606277 62.14301581 -76.67610913 63.47718116 -78.6953125 64.78125 C-79.5203125 65.379375 -80.3453125 65.9775 -81.1953125 66.59375 C-84.41234679 68.12184129 -86.30717155 67.64798373 -89.6953125 66.78125 C-90.3203125 63.71875 -90.3203125 63.71875 -89.6953125 59.78125 C-86.66879563 56.95415478 -83.23159737 54.913577 -79.6953125 52.78125 C-78.52417672 51.97520513 -77.3564859 51.16408146 -76.1953125 50.34375 C-73.6953125 48.78125 -73.6953125 48.78125 -71.6953125 48.78125 C-71.6953125 48.12125 -71.6953125 47.46125 -71.6953125 46.78125 C-70.296875 45.73828125 -70.296875 45.73828125 -68.3203125 44.59375 C-65.03792559 42.62547566 -61.88274895 40.55419018 -58.7578125 38.34375 C-54.81715929 35.5574906 -50.83151896 32.85699124 -46.80078125 30.203125 C-44.7610442 28.82564024 -42.79249853 27.37815404 -40.8203125 25.90625 C-37.6953125 23.78125 -37.6953125 23.78125 -34.6953125 23.78125 C-34.2003125 22.29625 -34.2003125 22.29625 -33.6953125 20.78125 C-32.015625 19.421875 -32.015625 19.421875 -29.8203125 18.03125 C-28.59828125 17.24621094 -28.59828125 17.24621094 -27.3515625 16.4453125 C-25.58072917 15.3359375 -23.80989583 14.2265625 -22.0390625 13.1171875 C-20.69328125 12.27027344 -20.69328125 12.27027344 -19.3203125 11.40625 C-17.94359375 10.54386719 -17.94359375 10.54386719 -16.5390625 9.6640625 C-12.59414307 7.05217903 -8.89637735 4.14210188 -5.203125 1.1875 C-2.6953125 -0.21875 -2.6953125 -0.21875 0 0 Z " fill="#100913" transform="translate(149.6953125,55.21875)"/>
<path d="M0 0 C2.13619737 6.20514474 3.36517527 11.42684522 3 18 C2.01 18.33 1.02 18.66 0 19 C0 19.66 0 20.32 0 21 C-1.9765625 22.3671875 -1.9765625 22.3671875 -4.625 23.875 C-7.64444972 25.617483 -10.59337396 27.35891066 -13.4375 29.375 C-16 31 -16 31 -19 31 C-19.84761822 29.29870914 -20.6774868 27.58856916 -21.5 25.875 C-21.9640625 24.92367187 -22.428125 23.97234375 -22.90625 22.9921875 C-24.13736194 19.62421697 -24.62742581 17.54423738 -24 14 C-21.55078125 11.8046875 -21.55078125 11.8046875 -18.3125 9.875 C-14.31132078 7.44204853 -10.62143808 4.97046404 -7 2 C-4.26466879 0.39098164 -3.24114485 0 0 0 Z " fill="#0E090F" transform="translate(140,99)"/>
<path d="M0 0 C2.31 0 4.62 0 7 0 C7 0.66 7 1.32 7 2 C7.66 2 8.32 2 9 2 C9 2.66 9 3.32 9 4 C6.99190589 5.65056994 5.00290528 7.14471806 2.875 8.625 C2.02035156 9.25535156 2.02035156 9.25535156 1.1484375 9.8984375 C-2.70927365 12.5988353 -5.31160309 13.49876563 -10 13 C-10 10.69 -10 8.38 -10 6 C-8.72125 5.7525 -7.4425 5.505 -6.125 5.25 C-2.73252682 4.48009414 -2.73252682 4.48009414 -0.5 1.875 C-0.335 1.25625 -0.17 0.6375 0 0 Z " fill="#0B080D" transform="translate(133,67)"/>
<path d="M0 0 C0.556875 0.2475 1.11375 0.495 1.6875 0.75 C1.6875 1.41 1.6875 2.07 1.6875 2.75 C0.800625 3.141875 -0.08625 3.53375 -1 3.9375 C-4.4522098 5.82644499 -6.62005236 7.91201465 -9.3125 10.75 C-13.48568933 13.53212622 -17.38225779 14.90481562 -22.3125 15.75 C-22.3125 17.4 -22.3125 19.05 -22.3125 20.75 C-27.72788462 22.96538462 -27.72788462 22.96538462 -30.6875 21.875 C-31.22375 21.50375 -31.76 21.1325 -32.3125 20.75 C-31.508125 20.21375 -30.70375 19.6775 -29.875 19.125 C-29.32457031 18.75761719 -28.77414063 18.39023438 -28.20703125 18.01171875 C-26.89351034 17.13694091 -25.57828508 16.2647189 -24.26171875 15.39453125 C-14.03280755 8.74575921 -14.03280755 8.74575921 -4.4375 1.25 C-2.3125 -0.25 -2.3125 -0.25 0 0 Z " fill="#64446E" transform="translate(98.3125,101.25)"/>
<path d="M0 0 C0.33 0 0.66 0 1 0 C1.42968661 4.29686609 1.41369759 7.01214548 -1.3125 10.375 C-4 13 -4 13 -7 14 C-8.36830247 15.6336861 -8.36830247 15.6336861 -9.5625 17.5625 C-10.81640625 19.50390625 -10.81640625 19.50390625 -12 21 C-12.66 21 -13.32 21 -14 21 C-14 21.66 -14 22.32 -14 23 C-14.928125 23.144375 -15.85625 23.28875 -16.8125 23.4375 C-20.00725111 23.92100111 -20.00725111 23.92100111 -23 25 C-24.39439664 25.06665376 -25.79169875 25.08538199 -27.1875 25.0625 C-29.0746875 25.0315625 -29.0746875 25.0315625 -31 25 C-31 24.67 -31 24.34 -31 24 C-30.071875 23.814375 -29.14375 23.62875 -28.1875 23.4375 C-22.4920524 21.79062359 -17.8355013 18.32874144 -13 15 C-12.4548877 14.63390625 -11.90977539 14.2678125 -11.34814453 13.890625 C-9.67509909 12.76009733 -8.02340128 11.60359954 -6.375 10.4375 C-5.37210938 9.73496094 -4.36921875 9.03242188 -3.3359375 8.30859375 C-0.54481206 5.55014035 -0.23215612 3.85268613 0 0 Z " fill="#180A1D" transform="translate(136,172)"/>
<path d="M0 0 C-1.5 3 -1.5 3 -3 6 C-3.66 6 -4.32 6 -5 6 C-5 6.66 -5 7.32 -5 8 C-5.99 8.33 -6.98 8.66 -8 9 C-8.515625 9.763125 -9.03125 10.52625 -9.5625 11.3125 C-12.59579571 14.65690296 -15.46656393 15.62352259 -19.66015625 17.10546875 C-22.21392266 17.98300098 -22.21392266 17.98300098 -25 20 C-27.1875 19.625 -27.1875 19.625 -29 19 C-27.77322572 18.05937158 -26.54344965 17.12265768 -25.3125 16.1875 C-24.62800781 15.66542969 -23.94351563 15.14335938 -23.23828125 14.60546875 C-20.89586035 12.92530297 -18.47491188 11.4765962 -16 10 C-14.30193279 8.848768 -12.61439398 7.68186037 -10.9375 6.5 C-10.10089844 5.9121875 -9.26429687 5.324375 -8.40234375 4.71875 C-6.84862767 3.60714825 -5.31757635 2.4628508 -3.81640625 1.28125 C-2 0 -2 0 0 0 Z " fill="#624470" transform="translate(102,67)"/>
<path d="M0 0 C0.33 0 0.66 0 1 0 C1.43663472 5.32694356 1.43663472 5.32694356 1 8 C-1.3125 9.6875 -1.3125 9.6875 -4 11 C-4.495 11.886875 -4.99 12.77375 -5.5 13.6875 C-5.995 14.450625 -6.49 15.21375 -7 16 C-9.6875 16.3125 -9.6875 16.3125 -12 16 C-12 16.99 -12 17.98 -12 19 C-13.32 19.33 -14.64 19.66 -16 20 C-15.938125 20.70125 -15.87625 21.4025 -15.8125 22.125 C-16.04256101 25.65260212 -17.29200568 27.93984351 -19 31 C-19.66 31 -20.32 31 -21 31 C-21.32573004 26.5192258 -20.86942182 23.10713372 -19 19 C-15.72972016 15.91422114 -11.97590873 13.56428946 -8.12133789 11.27441406 C-3.03679596 8.25905082 -3.03679596 8.25905082 -0.46875 3.14453125 C-0.3140625 2.10683594 -0.159375 1.06914063 0 0 Z " fill="#1C0621" transform="translate(180,53)"/>
<path d="M0 0 C0 3 0 3 -2.0625 5.375 C-8.02951008 10.70722177 -13.24309914 13.83651065 -21 16 C-21 16.66 -21 17.32 -21 18 C-21.66 18 -22.32 18 -23 18 C-23 18.99 -23 19.98 -23 21 C-24.65 20.67 -26.3 20.34 -28 20 C-20.09599847 11.7562337 -9.59283867 6.09573754 0 0 Z " fill="#5D4066" transform="translate(136,43)"/>
<path d="M0 0 C0.33 1.32 0.66 2.64 1 4 C0.113125 4.391875 -0.77375 4.78375 -1.6875 5.1875 C-5.10954351 6.85034399 -5.10954351 6.85034399 -7.625 9.6875 C-10 12 -10 12 -14 12 C-14.33 12.99 -14.66 13.98 -15 15 C-18.22791555 17.1519437 -19.28400809 17.20086443 -23 17 C-16.52901777 9.88191955 -8.14997474 4.98054012 0 0 Z " fill="#64456E" transform="translate(122,84)"/>
<path d="M0 0 C1.32 0.66 2.64 1.32 4 2 C5.00496852 5.01490557 5.10335303 7.04181692 5.0625 10.1875 C5.05347656 11.08855469 5.04445312 11.98960938 5.03515625 12.91796875 C5.02355469 13.60503906 5.01195312 14.29210937 5 15 C4.34 15 3.68 15 3 15 C2.773125 15.639375 2.54625 16.27875 2.3125 16.9375 C1 19 1 19 -1.5 19.875 C-2.7375 19.936875 -2.7375 19.936875 -4 20 C-4.66 19.34 -5.32 18.68 -6 18 C-4.68 17.67 -3.36 17.34 -2 17 C-2 16.34 -2 15.68 -2 15 C-1.34 14.67 -0.68 14.34 0 14 C0 9.38 0 4.76 0 0 Z " fill="#654471" transform="translate(142,103)"/>
<path d="M0 0 C0.66 0.33 1.32 0.66 2 1 C-0.56411552 3.56411552 -3.1267962 6.12103274 -5.75 8.625 C-8.3519165 11.37146742 -8.97504589 12.92697343 -9.0625 16.6875 C-9.041875 17.450625 -9.02125 18.21375 -9 19 C-9.66 19.33 -10.32 19.66 -11 20 C-12.60038668 16.49915413 -13.49539634 13.8511168 -13 10 C-11.171875 8.0859375 -11.171875 8.0859375 -8.75 6.375 C-7.96109375 5.80523437 -7.1721875 5.23546875 -6.359375 4.6484375 C-5.58078125 4.10445312 -4.8021875 3.56046875 -4 3 C-2.6634005 2.00436976 -1.32893136 1.00584254 0 0 Z " fill="#1D0A24" transform="translate(140,133)"/>
<path d="M0 0 C1.65 0 3.3 0 5 0 C4.51236749 7.43639576 4.51236749 7.43639576 2.125 10.0625 C0 11 0 11 -3 10 C-3 6.13304322 -1.58090029 3.4911548 0 0 Z " fill="#0B080D" transform="translate(107,84)"/>
<path d="M0 0 C0.33 0.66 0.66 1.32 1 2 C0.67 2.66 0.34 3.32 0 4 C-0.99 4.33 -1.98 4.66 -3 5 C-3.433125 5.9590625 -3.433125 5.9590625 -3.875 6.9375 C-5.39298609 9.72047449 -7.09218239 9.95616804 -10 11 C-10.33 11.66 -10.66 12.32 -11 13 C-13.31 13 -15.62 13 -18 13 C-14.88161739 9.33928998 -11.32993187 7.41084185 -7.12109375 5.24609375 C-5.04254106 4.02499189 -3.65438864 2.73111391 -2 1 C-1.34 0.67 -0.68 0.34 0 0 Z " fill="#63466D" transform="translate(72,87)"/>
<path d="M0 0 C2.4375 2.0625 2.4375 2.0625 4 4 C3.38511719 3.94199219 2.77023438 3.88398437 2.13671875 3.82421875 C-0.32656059 3.68671512 -2.55794325 3.63195953 -5 4 C-7.15602694 6.33749166 -7.15602694 6.33749166 -8 9 C-10 7 -10 7 -10.3125 4.5625 C-10 2 -10 2 -8.9375 0.125 C-5.75674084 -1.72189242 -3.4505236 -0.90803253 0 0 Z " fill="#61436B" transform="translate(149,29)"/>
<path d="M0 0 C0.66 0.33 1.32 0.66 2 1 C1.01 1.33 0.02 1.66 -1 2 C-1.43543714 7.98726071 -0.5268153 11.5229844 2.109375 16.87890625 C3.27506458 19.65508802 3.30472787 22.02890328 3 25 C2.34 25 1.68 25 1 25 C0.15862957 22.1062867 -0.6733036 19.21040603 -1.5 16.3125 C-1.73847656 15.49587891 -1.97695312 14.67925781 -2.22265625 13.83789062 C-3.36464868 9.80828875 -4.34500623 6.23495153 -4 2 C-2.125 0.9375 -2.125 0.9375 0 0 Z " fill="#17061D" transform="translate(154,87)"/>
<path d="M0 0 C3.91498654 1.01008127 5.90390847 4.31257431 8.07421875 7.53515625 C7.74421875 8.19515625 7.41421875 8.85515625 7.07421875 9.53515625 C5.75421875 9.20515625 4.43421875 8.87515625 3.07421875 8.53515625 C3.07421875 7.21515625 3.07421875 5.89515625 3.07421875 4.53515625 C2.37554687 4.55835938 1.676875 4.5815625 0.95703125 4.60546875 C0.04695312 4.62351562 -0.863125 4.6415625 -1.80078125 4.66015625 C-2.70570313 4.68335938 -3.610625 4.7065625 -4.54296875 4.73046875 C-6.92578125 4.53515625 -6.92578125 4.53515625 -8.92578125 2.53515625 C-5.78343932 0.44026163 -3.75860817 -0.04863264 0 0 Z " fill="#64456F" transform="translate(161.92578125,28.46484375)"/>
<path d="M0 0 C3.78502245 5.67753368 4.52766592 11.3514094 4 18 C2.5 21.5 2.5 21.5 1 24 C0.34 24 -0.32 24 -1 24 C-1 23.01 -1 22.02 -1 21 C-0.34 21 0.32 21 1 21 C0.79375 20.0925 0.5875 19.185 0.375 18.25 C0 15 0 15 1.06640625 13.0859375 C2.24014584 11.01593845 2.24014584 11.01593845 1.50390625 8.7109375 C1.19324219 7.94007812 0.88257813 7.16921875 0.5625 6.375 C-0.37109375 4.0234375 -0.37109375 4.0234375 -1 2 C-0.67 1.34 -0.34 0.68 0 0 Z " fill="#5B3B66" transform="translate(152,102)"/>
<path d="M0 0 C0.66 0.33 1.32 0.66 2 1 C1.7556403 4.29885597 0.77114107 5.22885893 -1.625 7.625 C-4.89664509 10.20578799 -7.95951447 11.11109318 -12 12 C-12 11.01 -12 10.02 -12 9 C-11.34 9 -10.68 9 -10 9 C-10 8.34 -10 7.68 -10 7 C-8.3203125 5.78125 -8.3203125 5.78125 -6.125 4.5 C-3.74637514 3.10181191 -1.96207916 1.96207916 0 0 Z " fill="#1D0C21" transform="translate(88,95)"/>
<path d="M0 0 C0.66 0.33 1.32 0.66 2 1 C0.07949482 5.5485649 -1.34964842 8.09758344 -6 10 C-9.8125 10.1875 -9.8125 10.1875 -13 10 C-10.53511103 7.33857503 -7.79550348 5.36573616 -4.8125 3.3125 C-3.91144531 2.68988281 -3.01039063 2.06726563 -2.08203125 1.42578125 C-1.39496094 0.95527344 -0.70789063 0.48476562 0 0 Z " fill="#5C4266" transform="translate(137,73)"/>
<path d="M0 0 C0.66 0.99 1.32 1.98 2 3 C1.21625 3.433125 0.4325 3.86625 -0.375 4.3125 C-3.21698375 5.89220247 -3.21698375 5.89220247 -5 9 C-6.9453125 9.51171875 -6.9453125 9.51171875 -9.125 9.6875 C-11.043125 9.8421875 -11.043125 9.8421875 -13 10 C-9.11973109 5.75595588 -4.95745654 2.89082453 0 0 Z " fill="#200B26" transform="translate(136,63)"/>
<path d="M0 0 C0.99 0.66 1.98 1.32 3 2 C1.35 2.66 -0.3 3.32 -2 4 C-0.96099331 9.50062364 0.43216927 13.9866162 3 19 C2.67 19.66 2.34 20.32 2 21 C1.01 21 0.02 21 -1 21 C-1.144375 20.195625 -1.28875 19.39125 -1.4375 18.5625 C-1.74135249 16.07896294 -1.74135249 16.07896294 -3 15 C-3.15167148 13.04577134 -3.22179996 11.08490271 -3.25 9.125 C-3.27578125 8.05507812 -3.3015625 6.98515625 -3.328125 5.8828125 C-3 3 -3 3 -1.484375 1.1171875 C-0.99453125 0.74851562 -0.5046875 0.37984375 0 0 Z " fill="#653F6F" transform="translate(118,109)"/>
<path d="M0 0 C0.66 2.64 1.32 5.28 2 8 C1.34 8 0.68 8 0 8 C-0.66 7.01 -1.32 6.02 -2 5 C-2.55429688 5.15597656 -3.10859375 5.31195313 -3.6796875 5.47265625 C-4.40414062 5.66730469 -5.12859375 5.86195312 -5.875 6.0625 C-6.95394531 6.35833984 -6.95394531 6.35833984 -8.0546875 6.66015625 C-10 7 -10 7 -12 6 C-4.8 0 -4.8 0 0 0 Z " fill="#200B27" transform="translate(140,99)"/>
<path d="M0 0 C0.66 0 1.32 0 2 0 C2 1.32 2 2.64 2 4 C-0.50484597 6.41847197 -1.46013806 7 -5 7 C-5.33 7.99 -5.66 8.98 -6 10 C-7.65 9.67 -9.3 9.34 -11 9 C-8.24829249 6.0444623 -5.58029701 3.88436685 -2 2 C-1.34 2 -0.68 2 0 2 C0 1.34 0 0.68 0 0 Z " fill="#18071B" transform="translate(153,124)"/>
<path d="M0 0 C0.66 0 1.32 0 2 0 C2 0.99 2 1.98 2 3 C3.423125 3.185625 3.423125 3.185625 4.875 3.375 C8 4 8 4 10 6 C7.24075815 7.80411967 6.11027897 8.0127245 2.75 7.625 C1.8425 7.41875 0.935 7.2125 0 7 C0 4.69 0 2.38 0 0 Z " fill="#1B0822" transform="translate(60,115)"/>
<path d="M0 0 C0.33 0.66 0.66 1.32 1 2 C-2.13532982 5.31449152 -5.09788366 7.67982272 -9 10 C-9.66 10.99 -10.32 11.98 -11 13 C-11.34375 10.2421875 -11.34375 10.2421875 -11 7 C-8.59375 4.8828125 -8.59375 4.8828125 -5.5 3.125 C-4.4790625 2.52945313 -3.458125 1.93390625 -2.40625 1.3203125 C-1.21515625 0.66675781 -1.21515625 0.66675781 0 0 Z " fill="#1E0924" transform="translate(127,106)"/>
<path d="M0 0 C0.99 0.33 1.98 0.66 3 1 C1.49079343 4.01841313 -1.00660053 4.56086564 -4 6 C-5.67623498 6.98387706 -7.34634594 7.97862543 -9 9 C-9.33 8.01 -9.66 7.02 -10 6 C-9.34 5.34 -8.68 4.68 -8 4 C-7.01 4 -6.02 4 -5 4 C-5 3.34 -5 2.68 -5 2 C-3.35 1.67 -1.7 1.34 0 1 C0 0.67 0 0.34 0 0 Z " fill="#6B4378" transform="translate(113,76)"/>
<path d="M0 0 C0.66 0 1.32 0 2 0 C2 0.99 2 1.98 2 3 C2.99 3.33 3.98 3.66 5 4 C5.80078125 5.99609375 5.80078125 5.99609375 6.3125 8.4375 C6.49425781 9.24058594 6.67601563 10.04367188 6.86328125 10.87109375 C6.90839844 11.57363281 6.95351562 12.27617187 7 13 C6.34 13.66 5.68 14.32 5 15 C4.16260219 12.8765984 3.33019717 10.7512272 2.5 8.625 C1.80390625 6.84996094 1.80390625 6.84996094 1.09375 5.0390625 C0 2 0 2 0 0 Z " fill="#654571" transform="translate(85,152)"/>
<path d="M0 0 C-1.27351308 3.82053924 -2.62637525 4.23021375 -6.0625 6.1875 C-6.98160156 6.71730469 -7.90070312 7.24710937 -8.84765625 7.79296875 C-9.55792969 8.19128906 -10.26820312 8.58960937 -11 9 C-10.67 7.35 -10.34 5.7 -10 4 C-9.34 4 -8.68 4 -8 4 C-8 3.34 -8 2.68 -8 2 C-2.25 0 -2.25 0 0 0 Z " fill="#16091A" transform="translate(63,92)"/>
<path d="M0 0 C0.66 0.33 1.32 0.66 2 1 C0.7954483 3.97122753 -0.24053164 5.65527677 -3.203125 7 C-5.45586752 7.73674598 -7.70515269 8.40824692 -10 9 C-10 8.34 -10 7.68 -10 7 C-8.35 6.34 -6.7 5.68 -5 5 C-5 4.34 -5 3.68 -5 3 C-2.625 1.3125 -2.625 1.3125 0 0 Z " fill="#5F4167" transform="translate(51,101)"/>
<path d="M0 0 C0.8353125 0.37125 0.8353125 0.37125 1.6875 0.75 C1.6875 1.41 1.6875 2.07 1.6875 2.75 C-2.60706388 5.05440013 -6.62729085 6.53184562 -11.3125 7.75 C-3.47683566 -0.37587413 -3.47683566 -0.37587413 0 0 Z " fill="#5B4161" transform="translate(98.3125,101.25)"/>
<path d="M0 0 C0.33 0.66 0.66 1.32 1 2 C0.34 2 -0.32 2 -1 2 C-0.6596875 3.299375 -0.6596875 3.299375 -0.3125 4.625 C0.0632763 8.68338409 -0.94742069 10.55166676 -3 14 C-3.66 14 -4.32 14 -5 14 C-4.7451971 12.03951648 -4.47063056 10.08159327 -4.1875 8.125 C-4.03667969 7.03445312 -3.88585937 5.94390625 -3.73046875 4.8203125 C-3 2 -3 2 0 0 Z " fill="#240D2B" transform="translate(164,70)"/>
<path d="M0 0 C0.66 0.33 1.32 0.66 2 1 C1.0625 3.375 1.0625 3.375 -1 6 C-3.9481839 7.04022801 -6.90930595 7.56587736 -10 8 C-7.44796499 3.79664822 -4.32018082 2.12081604 0 0 Z " fill="#26112A" transform="translate(105,84)"/>
<path d="M0 0 C0.33 0 0.66 0 1 0 C1.42320237 4.23202372 1.40361534 7.04475835 -1.1875 10.4375 C-4 13 -4 13 -6.8125 13.375 C-7.534375 13.25125 -8.25625 13.1275 -9 13 C-6.42215154 10.35247996 -4.08351902 8.05567935 -1 6 C-0.26656572 2.93443402 -0.26656572 2.93443402 0 0 Z " fill="#291331" transform="translate(136,172)"/>
<path d="M0 0 C-0.33 1.32 -0.66 2.64 -1 4 C-1.66 4 -2.32 4 -3 4 C-3.33 7.63 -3.66 11.26 -4 15 C-6.32054267 10.35891466 -6.28842461 7.89393541 -5 3 C-2.84375 0 -2.84375 0 0 0 Z " fill="#140319" transform="translate(158,86)"/>
<path d="M0 0 C0.66 0.33 1.32 0.66 2 1 C0.07423885 3.43929746 -1.80090595 5.80090595 -4 8 C-6.625 8.125 -6.625 8.125 -9 8 C-6.6875 5.5 -6.6875 5.5 -4 3 C-3.01 3 -2.02 3 -1 3 C-0.67 2.01 -0.34 1.02 0 0 Z " fill="#240D2D" transform="translate(116,76)"/>
<path d="M0 0 C-2.50683077 3.76024616 -4.86493934 4.39192086 -9 6 C-8.75 3.625 -8.75 3.625 -8 1 C-5.12800349 -1.17875597 -3.33791789 -1.19211353 0 0 Z " fill="#110A18" transform="translate(86,77)"/>
<path d="M0 0 C4.75 0.875 4.75 0.875 7 2 C7 3.32 7 4.64 7 6 C6.34 6 5.68 6 5 6 C5 5.34 5 4.68 5 4 C2.69 3.67 0.38 3.34 -2 3 C-1.34 2.01 -0.68 1.02 0 0 Z " fill="#1A0720" transform="translate(147,55)"/>
<path d="M0 0 C0.66 0.33 1.32 0.66 2 1 C1.01 1.33 0.02 1.66 -1 2 C-1 6.29 -1 10.58 -1 15 C-2.73684533 11.52630934 -3.30084112 9.92380063 -3.625 6.25 C-3.69976562 5.45078125 -3.77453125 4.6515625 -3.8515625 3.828125 C-3.90054688 3.22484375 -3.94953125 2.6215625 -4 2 C-2.125 0.9375 -2.125 0.9375 0 0 Z " fill="#280C32" transform="translate(154,87)"/>
<path d="M0 0 C-0.54226981 3.79588866 -2.20127563 5.47211993 -5 8 C-5.99 7.67 -6.98 7.34 -8 7 C-4.13157895 0 -4.13157895 0 0 0 Z " fill="#1C081E" transform="translate(123,73)"/>
<path d="M0 0 C1.41377341 2.63904371 2.37240135 5.07120629 3 8 C0.525 9.485 0.525 9.485 -2 11 C-1.85892253 9.54119891 -1.71197585 8.08296449 -1.5625 6.625 C-1.48128906 5.81289063 -1.40007812 5.00078125 -1.31640625 4.1640625 C-1 2 -1 2 0 0 Z " fill="#1D0B23" transform="translate(138,32)"/>
<path d="M0 0 C0.66 0.33 1.32 0.66 2 1 C0.4375 3.9375 0.4375 3.9375 -2 7 C-5.75 7.875 -5.75 7.875 -9 8 C-6.14723863 5.06799526 -3.34920216 2.35684596 0 0 Z " fill="#240C2C" transform="translate(125,185)"/>
<path d="M0 0 C1.32 0.66 2.64 1.32 4 2 C3.21625 2.12375 2.4325 2.2475 1.625 2.375 C-1.19101512 3.7292184 -1.19101512 3.7292184 -1.77734375 6.359375 C-2.26935449 8.90202904 -2.68230996 11.43002979 -3 14 C-3.33 14 -3.66 14 -4 14 C-4.43177893 7.73920552 -3.92739438 4.90924297 0 0 Z " fill="#27192B" transform="translate(42,104)"/>
<path d="M0 0 C0.33 0.66 0.66 1.32 1 2 C0.67 2.66 0.34 3.32 0 4 C-0.99 4.33 -1.98 4.66 -3 5 C-3.33 5.66 -3.66 6.32 -4 7 C-7.0625 7.625 -7.0625 7.625 -10 8 C-8 5 -8 5 -5 4 C-3.97980427 3.0206121 -2.97850195 2.02104551 -2 1 C-1.34 0.67 -0.68 0.34 0 0 Z " fill="#5B4164" transform="translate(72,87)"/>
<path d="M0 0 C-1.36983503 3.16115776 -1.9890638 3.9927092 -5 6 C-7.6875 5.625 -7.6875 5.625 -10 5 C-3.63636364 0 -3.63636364 0 0 0 Z " fill="#19091F" transform="translate(100,90)"/>
<path d="M0 0 C-0.33 1.65 -0.66 3.3 -1 5 C-6.75 6.125 -6.75 6.125 -9 5 C-7.87926138 4.16094435 -6.75325453 3.32892169 -5.625 2.5 C-4.99851563 2.0359375 -4.37203125 1.571875 -3.7265625 1.09375 C-2 0 -2 0 0 0 Z " fill="#5D3E65" transform="translate(148,67)"/>
<path d="M0 0 C2.83374881 3.20336822 3.5205537 5.78087253 4 10 C3.01 10.495 3.01 10.495 2 11 C-0.32590854 7.36576791 -0.16265833 4.22911669 0 0 Z " fill="#180D21" transform="translate(91,170)"/>
<path d="M0 0 C1.67542976 0.28604898 3.34385343 0.61781233 5 1 C2.11912454 3.40072955 -0.56404834 5.47291037 -4 7 C-4 6.34 -4 5.68 -4 5 C-3.34 5 -2.68 5 -2 5 C-1.7834375 4.0409375 -1.7834375 4.0409375 -1.5625 3.0625 C-1 1 -1 1 0 0 Z " fill="#664276" transform="translate(73,102)"/>
<path d="M0 0 C1.98 0.66 3.96 1.32 6 2 C4.37660195 3.70884005 2.70680947 5.37446717 1 7 C0.34 7 -0.32 7 -1 7 C-0.67 4.69 -0.34 2.38 0 0 Z " fill="#120B17" transform="translate(134,69)"/>
<path d="M0 0 C0.33 0 0.66 0 1 0 C1.33 3.3 1.66 6.6 2 10 C1.01 10.495 1.01 10.495 0 11 C-1.62651522 7.74696956 -1.11453156 4.60774398 -1 1 C-0.67 0.67 -0.34 0.34 0 0 Z " fill="#644B70" transform="translate(40,110)"/>
<path d="M0 0 C0 3 0 3 -2 6 C-4.125 6.6875 -4.125 6.6875 -6 7 C-6 6.01 -6 5.02 -6 4 C-5.34 4 -4.68 4 -4 4 C-4 3.34 -4 2.68 -4 2 C-2.68 1.34 -1.36 0.68 0 0 Z " fill="#230D2C" transform="translate(82,100)"/>
<path d="M0 0 C-0.75 7.75 -0.75 7.75 -3 10 C-2.979375 9.071875 -2.95875 8.14375 -2.9375 7.1875 C-2.84230396 3.97713989 -2.84230396 3.97713989 -4 1 C-2 0 -2 0 0 0 Z " fill="#6B467A" transform="translate(161,74)"/>
<path d="M0 0 C0.33 0 0.66 0 1 0 C1.43666974 5.32737077 1.43666974 5.32737077 1 8 C-1.375 10.0625 -1.375 10.0625 -4 11 C-4.66 10.67 -5.32 10.34 -6 10 C-5.195625 9.278125 -4.39125 8.55625 -3.5625 7.8125 C-0.97707928 4.97484311 -0.31957187 3.72833853 0 0 Z " fill="#200E29" transform="translate(180,53)"/>
<path d="M0 0 C2.6855594 2.6855594 3.06049974 5.37621328 4 9 C2.35 7.68 0.7 6.36 -1 5 C-0.67 3.35 -0.34 1.7 0 0 Z " fill="#1E0B1F" transform="translate(95,181)"/>
<path d="M0 0 C0.99 0.33 1.98 0.66 3 1 C0.63707344 3.52588702 -0.66462511 4.88820837 -4 6 C-4 5.01 -4 4.02 -4 3 C-2.1875 1.25 -2.1875 1.25 0 0 Z " fill="#674372" transform="translate(125,104)"/>
<path d="M0 0 C0.66 0.99 1.32 1.98 2 3 C0.7934375 3.4021875 0.7934375 3.4021875 -0.4375 3.8125 C-1.283125 4.204375 -2.12875 4.59625 -3 5 C-3.33 5.99 -3.66 6.98 -4 8 C-4.33 7.34 -4.66 6.68 -5 6 C-3.78741495 2.76643985 -2.98715542 1.99143695 0 0 Z " fill="#1C111E" transform="translate(71,84)"/>
<path d="M0 0 C0.33 0.99 0.66 1.98 1 3 C-0.75 4.5625 -0.75 4.5625 -3 6 C-4.32 5.67 -5.64 5.34 -7 5 C-4.69 3.35 -2.38 1.7 0 0 Z " fill="#583F60" transform="translate(80,81)"/>
<path d="M0 0 C1.32 0 2.64 0 4 0 C4.12375 0.969375 4.2475 1.93875 4.375 2.9375 C4.58125 3.948125 4.7875 4.95875 5 6 C5.66 6.33 6.32 6.66 7 7 C6.01 7 5.02 7 4 7 C3.67 5.68 3.34 4.36 3 3 C2.34 3 1.68 3 1 3 C0.67 2.01 0.34 1.02 0 0 Z " fill="#644271" transform="translate(48,132)"/>
<path d="M0 0 C-0.8125 1.9375 -0.8125 1.9375 -2 4 C-2.99 4.33 -3.98 4.66 -5 5 C-5.66 4.34 -6.32 3.68 -7 3 C-2.25 0 -2.25 0 0 0 Z " fill="#694474" transform="translate(68,108)"/>
<path d="M0 0 C-2.97 1.65 -5.94 3.3 -9 5 C-8 1 -8 1 -6.1875 -0.3125 C-4 -1 -4 -1 0 0 Z " fill="#674174" transform="translate(137,100)"/>
<path d="M0 0 C1.88391785 3.26545761 2.49287967 6.28111761 3 10 C2.01 10.495 2.01 10.495 1 11 C-0.62950412 6.87831311 -1.26264601 4.29299643 0 0 Z " fill="#664374" transform="translate(149,90)"/>
<path d="M0 0 C2 2 2 2 2 5 C0.02 4.34 -1.96 3.68 -4 3 C-3 1 -3 1 0 0 Z " fill="#080908" transform="translate(68,115)"/>
<path d="M0 0 C0.66 0.33 1.32 0.66 2 1 C-0.83430453 4.2542015 -2.68607774 5.5206753 -7 6 C-2.25 1.125 -2.25 1.125 0 0 Z " fill="#523B5B" transform="translate(114,89)"/>
<path d="M0 0 C0 0.66 0 1.32 0 2 C-3.465 3.485 -3.465 3.485 -7 5 C-6.625 3.0625 -6.625 3.0625 -6 1 C-4 0 -4 0 0 0 Z " fill="#654172" transform="translate(158,84)"/>
<path d="M0 0 C1.485 0.99 1.485 0.99 3 2 C3 2.66 3 3.32 3 4 C3.66 4 4.32 4 5 4 C5 4.66 5 5.32 5 6 C5.66 6.33 6.32 6.66 7 7 C5.35 7 3.7 7 2 7 C1.34 4.69 0.68 2.38 0 0 Z " fill="#2E1834" transform="translate(54,141)"/>
<path d="M0 0 C0.66 0.33 1.32 0.66 2 1 C1.67 2.32 1.34 3.64 1 5 C-0.65 4.67 -2.3 4.34 -4 4 C-2.68 2.68 -1.36 1.36 0 0 Z " fill="#220C2B" transform="translate(146,129)"/>
<path d="M0 0 C0.99 0.66 1.98 1.32 3 2 C-0.96 3.98 -0.96 3.98 -5 6 C-5 5.01 -5 4.02 -5 3 C-3.35 2.67 -1.7 2.34 0 2 C0 1.34 0 0.68 0 0 Z " fill="#684274" transform="translate(148,125)"/>
</svg>
